HIERARCHY
ROOT Hips
{
	OFFSET 0.000000 97.167313 0.000000
	CHANNELS 6 Xposition Yposition Zposition Xrotation Yrotation Zrotation
	JOINT Spine
	{
		OFFSET 0.000000 13.784798 0.064400
		CHANNELS 3 Xrotation Yrotation Zrotation
		JOINT Spine1
		{
			OFFSET 0.000000 12.037903 0.404700
			CHANNELS 3 Xrotation Yrotation Zrotation
			JOINT Spine2
			{
				OFFSET 0.000000 17.795601 0.420200
				CHANNELS 3 Xrotation Yrotation Zrotation
				JOINT Neck
				{
					OFFSET 0.000000 39.131302 11.954600
					CHANNELS 3 Xrotation Yrotation Zrotation
					JOINT Head
					{
						OFFSET 0.000000 14.456192 15.627699
						CHANNELS 3 Xrotation Yrotation Zrotation
						JOINT HeadTop_End
						{
							OFFSET 0.000000 15.703506 7.603401
							CHANNELS 3 Xrotation Yrotation Zrotation
							End Site
							{
								OFFSET 0.000000 17.447403 0.000000
							}
						}
					}
				}
				JOINT LeftShoulder
				{
					OFFSET 17.399500 24.608795 1.168800
					CHANNELS 3 Xrotation Yrotation Zrotation
					JOINT LeftArm
					{
						OFFSET 18.980635 5.765305 1.818600
						CHANNELS 3 Xrotation Yrotation Zrotation
						JOINT LeftForeArm
						{
							OFFSET 49.290169 0.000000 0.000000
							CHANNELS 3 Xrotation Yrotation Zrotation
							JOINT LeftHand
							{
								OFFSET 31.562012 0.000000 0.000000
								CHANNELS 3 Xrotation Yrotation Zrotation
								JOINT LeftHandThumb1
								{
									OFFSET 6.133995 -4.388519 7.076070
									CHANNELS 3 Xrotation Yrotation Zrotation
									JOINT LeftHandThumb2
									{
										OFFSET 6.037666 -3.485840 3.485847
										CHANNELS 3 Xrotation Yrotation Zrotation
										JOINT LeftHandThumb3
										{
											OFFSET 6.496506 -3.750763 3.750761
											CHANNELS 3 Xrotation Yrotation Zrotation
											JOINT LeftHandThumb4
											{
												OFFSET 5.616882 -3.242905 3.242910
												CHANNELS 3 Xrotation Yrotation Zrotation
												End Site
												{
													OFFSET -1.254608 7.132141 0.375429
												}
											}
										}
									}
								}
								JOINT LeftHandPinky1
								{
									OFFSET 18.920792 -0.453171 -11.426712
									CHANNELS 3 Xrotation Yrotation Zrotation
									JOINT LeftHandPinky2
									{
										OFFSET 4.919586 0.000000 0.000000
										CHANNELS 3 Xrotation Yrotation Zrotation
										JOINT LeftHandPinky3
										{
											OFFSET 5.233047 0.000000 0.000000
											CHANNELS 3 Xrotation Yrotation Zrotation
											JOINT LeftHandPinky4
											{
												OFFSET 5.571716 0.000000 0.000000
												CHANNELS 3 Xrotation Yrotation Zrotation
												End Site
												{
													OFFSET -3.459808 4.342407 -0.466164
												}
											}
										}
									}
								}
								JOINT LeftHandRing1
								{
									OFFSET 22.726120 -0.094986 -6.500475
									CHANNELS 3 Xrotation Yrotation Zrotation
									JOINT LeftHandRing2
									{
										OFFSET 6.408615 0.000000 0.000000
										CHANNELS 3 Xrotation Yrotation Zrotation
										JOINT LeftHandRing3
										{
											OFFSET 6.150223 0.000000 0.000000
											CHANNELS 3 Xrotation Yrotation Zrotation
											JOINT LeftHandRing4
											{
												OFFSET 6.145386 0.000000 0.000000
												CHANNELS 3 Xrotation Yrotation Zrotation
												End Site
												{
													OFFSET -3.671402 4.923981 -0.202372
												}
											}
										}
									}
								}
								JOINT LeftHandMiddle1
								{
									OFFSET 23.373947 0.000000 0.000001
									CHANNELS 3 Xrotation Yrotation Zrotation
									JOINT LeftHandMiddle2
									{
										OFFSET 6.996567 0.000000 0.000000
										CHANNELS 3 Xrotation Yrotation Zrotation
										JOINT LeftHandMiddle3
										{
											OFFSET 7.015945 0.000000 0.000000
											CHANNELS 3 Xrotation Yrotation Zrotation
											JOINT LeftHandMiddle4
											{
												OFFSET 7.721573 0.000000 0.000000
												CHANNELS 3 Xrotation Yrotation Zrotation
												End Site
												{
													OFFSET -4.651108 6.158463 0.251582
												}
											}
										}
									}
								}
								JOINT LeftHandIndex1
								{
									OFFSET 21.310577 -0.490082 6.209344
									CHANNELS 3 Xrotation Yrotation Zrotation
									JOINT LeftHandIndex2
									{
										OFFSET 7.536453 0.000000 0.000000
										CHANNELS 3 Xrotation Yrotation Zrotation
										JOINT LeftHandIndex3
										{
											OFFSET 7.512344 0.000000 0.000000
											CHANNELS 3 Xrotation Yrotation Zrotation
											JOINT LeftHandIndex4
											{
												OFFSET 10.212402 0.000000 0.000001
												CHANNELS 3 Xrotation Yrotation Zrotation
												End Site
												{
													OFFSET -5.180801 8.690506 1.388433
												}
											}
										}
									}
								}
							}
						}
					}
				}
				JOINT RightShoulder
				{
					OFFSET -17.399500 24.608795 1.168800
					CHANNELS 3 Xrotation Yrotation Zrotation
					JOINT RightArm
					{
						OFFSET -18.980635 5.765305 1.818600
						CHANNELS 3 Xrotation Yrotation Zrotation
						JOINT RightForeArm
						{
							OFFSET -49.290169 0.000000 0.000000
							CHANNELS 3 Xrotation Yrotation Zrotation
							JOINT RightHand
							{
								OFFSET -31.562012 0.000000 0.000000
								CHANNELS 3 Xrotation Yrotation Zrotation
								JOINT RightHandThumb1
								{
									OFFSET -6.133995 -4.388519 7.076070
									CHANNELS 3 Xrotation Yrotation Zrotation
									JOINT RightHandThumb2
									{
										OFFSET -6.037666 -3.485840 3.485847
										CHANNELS 3 Xrotation Yrotation Zrotation
										JOINT RightHandThumb3
										{
											OFFSET -6.496506 -3.750763 3.750761
											CHANNELS 3 Xrotation Yrotation Zrotation
											JOINT RightHandThumb4
											{
												OFFSET -5.616882 -3.242905 3.242910
												CHANNELS 3 Xrotation Yrotation Zrotation
												End Site
												{
													OFFSET 1.254608 7.132141 0.375429
												}
											}
										}
									}
								}
								JOINT RightHandIndex1
								{
									OFFSET -21.310577 -0.490082 6.209344
									CHANNELS 3 Xrotation Yrotation Zrotation
									JOINT RightHandIndex2
									{
										OFFSET -7.536453 0.000000 0.000000
										CHANNELS 3 Xrotation Yrotation Zrotation
										JOINT RightHandIndex3
										{
											OFFSET -7.512344 0.000000 0.000000
											CHANNELS 3 Xrotation Yrotation Zrotation
											JOINT RightHandIndex4
											{
												OFFSET -10.212402 0.000000 0.000001
												CHANNELS 3 Xrotation Yrotation Zrotation
												End Site
												{
													OFFSET 5.180801 8.690506 1.388433
												}
											}
										}
									}
								}
								JOINT RightHandMiddle1
								{
									OFFSET -23.373947 0.000000 0.000001
									CHANNELS 3 Xrotation Yrotation Zrotation
									JOINT RightHandMiddle2
									{
										OFFSET -6.996567 0.000000 0.000000
										CHANNELS 3 Xrotation Yrotation Zrotation
										JOINT RightHandMiddle3
										{
											OFFSET -7.015945 0.000000 0.000000
											CHANNELS 3 Xrotation Yrotation Zrotation
											JOINT RightHandMiddle4
											{
												OFFSET -7.721573 0.000000 0.000000
												CHANNELS 3 Xrotation Yrotation Zrotation
												End Site
												{
													OFFSET 4.651108 6.158463 0.251582
												}
											}
										}
									}
								}
								JOINT RightHandRing1
								{
									OFFSET -22.726120 -0.094986 -6.500475
									CHANNELS 3 Xrotation Yrotation Zrotation
									JOINT RightHandRing2
									{
										OFFSET -6.408615 0.000000 0.000000
										CHANNELS 3 Xrotation Yrotation Zrotation
										JOINT RightHandRing3
										{
											OFFSET -6.150223 0.000000 0.000000
											CHANNELS 3 Xrotation Yrotation Zrotation
											JOINT RightHandRing4
											{
												OFFSET -6.145386 0.000000 0.000000
												CHANNELS 3 Xrotation Yrotation Zrotation
												End Site
												{
													OFFSET 3.671402 4.923981 -0.202372
												}
											}
										}
									}
								}
								JOINT RightHandPinky1
								{
									OFFSET -18.920792 -0.453171 -11.426712
									CHANNELS 3 Xrotation Yrotation Zrotation
									JOINT RightHandPinky2
									{
										OFFSET -4.919586 0.000000 0.000000
										CHANNELS 3 Xrotation Yrotation Zrotation
										JOINT RightHandPinky3
										{
											OFFSET -5.233047 0.000000 0.000000
											CHANNELS 3 Xrotation Yrotation Zrotation
											JOINT RightHandPinky4
											{
												OFFSET -5.571716 0.000000 0.000000
												CHANNELS 3 Xrotation Yrotation Zrotation
												End Site
												{
													OFFSET 3.459808 4.342407 -0.466164
												}
											}
										}
									}
								}
							}
						}
					}
				}
			}
		}
	}
	JOINT LeftUpLeg
	{
		OFFSET 19.899099 -7.885101 -3.429500
		CHANNELS 3 Xrotation Yrotation Zrotation
		JOINT LeftLeg
		{
			OFFSET 1.745560 -36.997807 10.304700
			CHANNELS 3 Xrotation Yrotation Zrotation
			JOINT LeftFoot
			{
				OFFSET -1.745558 -29.803308 -13.615400
				CHANNELS 3 Xrotation Yrotation Zrotation
				JOINT LeftToeBase
				{
					OFFSET 1.181900 -18.539904 15.226099
					CHANNELS 3 Xrotation Yrotation Zrotation
					JOINT LeftToe_End
					{
						OFFSET -0.863701 1.402801 16.534700
						CHANNELS 3 Xrotation Yrotation Zrotation
						End Site
						{
							OFFSET 0.000000 16.616566 0.000000
						}
					}
				}
			}
		}
	}
	JOINT RightUpLeg
	{
		OFFSET -19.899099 -7.885101 -3.429500
		CHANNELS 3 Xrotation Yrotation Zrotation
		JOINT RightLeg
		{
			OFFSET -1.745560 -36.997807 10.304700
			CHANNELS 3 Xrotation Yrotation Zrotation
			JOINT RightFoot
			{
				OFFSET 1.745558 -29.803308 -13.615400
				CHANNELS 3 Xrotation Yrotation Zrotation
				JOINT RightToeBase
				{
					OFFSET -1.181900 -18.539904 15.226099
					CHANNELS 3 Xrotation Yrotation Zrotation
					JOINT RightToe_End
					{
						OFFSET 0.863701 1.402801 16.534700
						CHANNELS 3 Xrotation Yrotation Zrotation
						End Site
						{
							OFFSET 0.000000 16.616566 0.000000
						}
					}
				}
			}
		}
	}
}
MOTION
Frames: 4
Frame Time: 0.033333
0.326591 88.393974 1.856716 -2.255657 -0.116188 -2.287324 1.831759 -1.438381 2.258973 3.579706 -2.533198 0.673626 3.579705 -2.533199 0.673625 -2.439475 1.360552 -0.177269 -0.112017 5.844294 -0.079477 0.000000 0.000000 -0.000000 0.442702 -8.235235 -13.151905 -0.624804 -8.808427 -59.472288 19.132408 -19.316361 6.827561 -5.405344 -8.531734 1.793591 25.111245 -2.687272 20.499095 9.304995 24.441163 -0.847867 -2.521163 -8.459284 -4.290577 0.000002 -0.000000 0.000001 -5.698672 1.174823 -43.952739 10.001135 3.459253 -50.341950 10.463907 6.463320 -29.880414 -0.000001 -0.000002 -0.000001 -1.227815 6.340738 -44.477857 7.491187 2.055236 -50.574446 5.786967 -0.288644 -9.889673 -0.000002 -0.000005 0.000005 0.976136 7.422057 -32.221715 5.809229 1.256790 -45.781122 5.743674 -0.254553 -5.489727 0.000000 -0.000001 0.000006 0.599977 6.911488 -23.883877 2.733477 1.542684 -36.765966 4.400520 -2.444499 -4.361231 -0.000001 0.000003 -0.000001 0.662846 2.643785 20.148735 -3.947859 -2.327089 62.260330 16.631085 11.939493 -3.786054 -4.421761 12.103411 -12.551302 3.824836 -12.345961 -1.042576 4.523891 -9.504796 0.488620 3.860018 -12.119579 -3.867341 -0.000001 0.000000 -0.000000 3.545358 -9.668629 69.326700 8.886351 -3.241714 112.372560 5.374740 0.824719 34.768176 -0.000002 -0.000003 -0.000002 5.660017 -9.815696 93.151705 8.809073 -2.682476 83.366291 6.985504 2.802870 35.996490 -0.000001 0.000000 -0.000009 4.831721 -12.380569 97.852500 10.912798 -3.225605 91.663495 8.357681 3.303299 55.647115 -0.000001 0.000001 -0.000002 0.269981 -10.740396 93.149772 10.737837 -3.968347 60.274329 11.067072 -1.040096 24.703602 0.000001 -0.000001 -0.000001 -17.148039 4.065584 2.243759 54.842417 18.560564 0.083514 6.696770 0.218638 5.609387 -24.573562 6.116954 -15.870537 -0.000000 -0.000001 0.000001 -13.725677 -3.306831 7.981076 28.558259 -6.810321 -0.326353 -14.669301 0.488331 -4.424471 3.382031 -0.000006 -0.000000 0.000000 -0.000001 0.000000 
0.261820 89.617096 6.334596 -1.180977 -0.876661 -1.515058 1.741307 -1.046710 1.798869 3.430666 -2.093241 0.503626 3.430663 -2.093237 0.503626 -2.880437 1.503224 -0.300709 -0.868323 6.239808 -0.144826 -0.000000 -0.000000 0.000000 0.465033 -6.824383 -13.199389 1.984601 -7.920567 -60.960217 21.503715 -17.957645 7.212605 -5.434435 -8.399869 0.549871 25.111240 -2.687270 20.499105 9.304994 24.441164 -0.847869 -2.521158 -8.459287 -4.290581 -0.000001 0.000003 0.000001 -5.698672 1.174818 -43.952735 10.001136 3.459250 -50.341961 10.463914 6.463320 -29.880404 -0.000000 -0.000004 -0.000005 -1.227813 6.340737 -44.477850 7.491182 2.055236 -50.574446 5.786972 -0.288644 -9.889673 -0.000000 0.000001 0.000002 0.976141 7.422052 -32.221715 5.809225 1.256791 -45.781119 5.743673 -0.254552 -5.489721 0.000000 -0.000002 0.000004 0.599979 6.911483 -23.883870 2.733481 1.542684 -36.765976 4.400520 -2.444496 -4.361235 0.000000 0.000001 0.000002 0.569206 3.625662 19.813819 -4.190932 -1.843522 62.253882 16.901773 11.574380 -3.701045 -4.234611 12.773932 -13.795078 3.824833 -12.345961 -1.042577 4.523896 -9.504802 0.488620 3.860022 -12.119579 -3.867343 -0.000000 -0.000002 -0.000000 3.545360 -9.668635 69.326693 8.886344 -3.241712 112.372560 5.374740 0.824721 34.768180 -0.000001 -0.000001 -0.000001 5.660019 -9.815694 93.151698 8.809071 -2.682474 83.366291 6.985506 2.802868 35.996480 -0.000000 0.000001 -0.000004 4.831720 -12.380568 97.852500 10.912801 -3.225605 91.663502 8.357683 3.303297 55.647108 -0.000001 0.000001 -0.000003 0.269985 -10.740396 93.149765 10.737840 -3.968347 60.274329 11.067072 -1.040091 24.703602 0.000002 -0.000002 -0.000001 -21.184387 3.614197 1.283214 47.561315 20.017935 -0.149705 3.757959 0.371551 5.115302 -18.977713 4.308924 -12.182082 -0.000000 -0.000001 0.000000 -9.998882 -3.106271 7.181643 25.917283 -5.657258 -0.217834 -15.769179 0.405717 -4.303718 2.501254 0.056407 0.555481 -0.000000 -0.000001 -0.000000 
0.154926 90.662926 10.556893 -0.189356 -1.273931 -0.717958 1.669183 -0.720491 1.198549 3.313557 -1.667529 0.363318 3.313557 -1.667529 0.363319 -3.561128 1.685901 -0.382810 -1.664879 6.800683 -0.171419 -0.000000 0.000000 0.000000 0.483153 -5.754565 -13.302131 4.862702 -6.518443 -62.548659 23.279399 -17.178098 7.545223 -5.399983 -8.090075 0.577703 25.111250 -2.687266 20.499100 9.304994 24.441163 -0.847864 -2.521162 -8.459289 -4.290572 0.000001 0.000003 0.000000 -5.698664 1.174826 -43.952739 10.001136 3.459254 -50.341961 10.463907 6.463320 -29.880411 0.000002 -0.000003 -0.000003 -1.227808 6.340740 -44.477850 7.491182 2.055230 -50.574450 5.786973 -0.288645 -9.889673 0.000003 0.000000 -0.000000 0.976140 7.422058 -32.221708 5.809221 1.256789 -45.781112 5.743670 -0.254555 -5.489725 0.000001 0.000000 0.000008 0.599982 6.911490 -23.883870 2.733487 1.542680 -36.765973 4.400518 -2.444497 -4.361235 0.000003 0.000005 0.000002 0.497170 4.439208 19.493980 -5.445178 -0.910446 62.314452 16.872217 9.009020 -2.893362 -3.809037 14.502758 -16.183732 3.824836 -12.345961 -1.042576 4.523897 -9.504806 0.488620 3.860022 -12.119576 -3.867335 0.000002 0.000001 0.000004 3.545358 -9.668632 69.326700 8.886353 -3.241712 112.372560 5.374742 0.824719 34.768176 -0.000000 -0.000002 0.000004 5.660019 -9.815693 93.151705 8.809072 -2.682474 83.366284 6.985506 2.802873 35.996483 -0.000001 0.000000 -0.000009 4.831722 -12.380568 97.852500 10.912799 -3.225605 91.663502 8.357682 3.303297 55.647119 -0.000002 0.000000 -0.000005 0.269984 -10.740394 93.149772 10.737839 -3.968348 60.274329 11.067071 -1.040096 24.703604 -0.000002 0.000000 0.000001 -24.474712 4.400932 -0.269597 38.550547 21.791425 0.173919 1.664592 0.217903 7.566074 -8.156083 2.670540 -10.485122 -0.000001 0.000000 -0.000000 -6.412273 -2.225356 6.588300 23.082739 -5.941670 -0.178046 -16.618072 0.467968 -4.704409 1.528397 0.508608 1.013194 0.000000 -0.000001 0.000000 
0.167206 91.224281 14.430557 0.611998 -1.195227 0.093947 1.616357 -0.478482 0.392522 3.229923 -1.253002 0.309907 3.229921 -1.253001 0.309906 -4.324857 1.973355 -0.430658 -2.508308 7.704974 -0.335035 0.000000 0.000001 -0.000000 0.499610 -4.946137 -13.456615 7.985429 -4.989376 -64.194175 24.673934 -16.634861 7.819910 -5.366803 -7.799481 0.824064 25.111238 -2.687270 20.499100 9.304992 24.441163 -0.847865 -2.521159 -8.459285 -4.290578 -0.000001 0.000002 -0.000002 -5.698671 1.174823 -43.952735 10.001135 3.459249 -50.341961 10.463909 6.463320 -29.880408 -0.000000 0.000001 -0.000007 -1.227818 6.340738 -44.477850 7.491186 2.055235 -50.574446 5.786970 -0.288640 -9.889673 -0.000001 -0.000002 0.000007 0.976144 7.422055 -32.221711 5.809222 1.256788 -45.781115 5.743671 -0.254557 -5.489724 -0.000003 -0.000002 0.000001 0.599981 6.911484 -23.883872 2.733482 1.542680 -36.765976 4.400519 -2.444500 -4.361231 -0.000000 0.000001 0.000002 0.442939 5.098720 19.203340 -6.920641 0.019910 62.393081 16.521615 5.742605 -1.840129 -3.143602 16.723730 -19.230293 3.824835 -12.345961 -1.042577 4.523894 -9.504799 0.488613 3.860023 -12.119578 -3.867343 0.000001 0.000001 0.000003 3.545357 -9.668634 69.326707 8.886351 -3.241711 112.372560 5.374744 0.824724 34.768180 -0.000002 -0.000003 -0.000002 5.660016 -9.815696 93.151698 8.809075 -2.682475 83.366284 6.985507 2.802868 35.996483 -0.000001 0.000002 -0.000004 4.831719 -12.380571 97.852493 10.912797 -3.225607 91.663495 8.357681 3.303298 55.647112 -0.000002 0.000001 0.000000 0.269983 -10.740395 93.149772 10.737840 -3.968347 60.274329 11.067069 -1.040093 24.703606 -0.000003 0.000002 0.000008 -27.449957 6.030204 -2.432313 29.428471 22.992751 1.011466 0.491813 -0.180431 10.690137 6.360922 1.276862 -8.650053 -0.000001 0.000001 -0.000000 -4.085589 -0.380160 5.808131 21.880779 -7.770636 -0.140940 -16.543878 0.409455 -4.757739 -1.133587 0.912860 1.440984 -0.000000 0.000000 0.000000 
